<?xml version="1.0" standalone="no"?><!DOCTYPE svg PUBLIC "-//W3C//DTD SVG 1.1//EN" "http://www.w3.org/Graphics/SVG/1.1/DTD/svg11.dtd"><svg t="1697884969760" class="icon" viewBox="0 0 1024 1024" version="1.1" xmlns="http://www.w3.org/2000/svg" p-id="1540" xmlns:xlink="http://www.w3.org/1999/xlink" width="200" height="200"><path d="M455.2 321.6c-61.6 61.6-124.8 120.8-184.8 184-44.8 46.4-40.8 113.6 5.6 161.6 55.2 56.8 112 112 168 167.2 21.6 21.6 20.8 47.2 5.6 70.4-14.4 21.6-35.2 34.4-63.2 22.4-13.6-6.4-25.6-15.2-36-25.6-52-52-104.8-103.2-156-156.8-89.6-92.8-91.2-232.8-0.8-324.8 127.2-129.6 256-257.6 384.8-386.4 28-28 64-30.4 87.2-6.4s20.8 56-6.4 84.8c-28.8 30.4-57.6 60.8-86.4 90.4-31.2 49.6-72 86.4-117.6 119.2z" fill="#070706" p-id="1541"></path><path d="M676.8 640.8h-184c-40.8 0-70.4-24.8-69.6-58.4 0.8-32 28-56 68-56 124.8-0.8 249.6-0.8 374.4 0 40 0 62.4 22.4 62.4 56.8 0 36-23.2 57.6-64.8 57.6-61.6 0.8-124 0-186.4 0z" fill="#B4B2B1" p-id="1542"></path><path d="M386.4 928c60.8-7.2 79.2-37.6 57.6-92.8 64 33.6 111.2 26.4 162.4-25.6 26.4-26.4 52.8-53.6 79.2-79.2s57.6-26.4 81.6-2.4 23.2 54.4-1.6 81.6c-34.4 35.2-67.2 70.4-103.2 103.2-77.6 69.6-200.8 75.2-276 15.2z" fill="#EAA240" p-id="1543"></path><path d="M455.2 321.6c36.8-41.6 76-80.8 117.6-117.6C662.4 232 714.4 305.6 774.4 369.6c19.2 20.8 12 53.6-10.4 72.8-21.6 19.2-53.6 18.4-73.6-2.4-26.4-23.2-51.2-48-74.4-74.4-44.8-52-97.6-66.4-160.8-44z" fill="#EAA340" p-id="1544"></path></svg>